<svg width="50" height="50" viewBox="0 0 50 50" fill="none" xmlns="http://www.w3.org/2000/svg">
<path d="M31.1783 21.1783L27.3567 25L31.1783 28.8217C31.83 29.4733 31.83 30.5267 31.1783 31.1783C30.8533 31.5033 30.4267 31.6667 30 31.6667C29.5733 31.6667 29.1467 31.5033 28.8217 31.1783L25 27.3567L21.1783 31.1783C20.8533 31.5033 20.4267 31.6667 20 31.6667C19.5733 31.6667 19.1467 31.5033 18.8217 31.1783C18.17 30.5267 18.17 29.4733 18.8217 28.8217L22.6433 25L18.8217 21.1783C18.17 20.5267 18.17 19.4733 18.8217 18.8217C19.4733 18.17 20.5267 18.17 21.1783 18.8217L25 22.6433L28.8217 18.8217C29.4733 18.17 30.5267 18.17 31.1783 18.8217C31.83 19.4733 31.83 20.5267 31.1783 21.1783ZM45 25C45 36.0283 36.0283 45 25 45C13.9717 45 5 36.0283 5 25C5 13.9717 13.9717 5 25 5C36.0283 5 45 13.9717 45 25ZM41.6667 25C41.6667 15.81 34.19 8.33333 25 8.33333C15.81 8.33333 8.33333 15.81 8.33333 25C8.33333 34.19 15.81 41.6667 25 41.6667C34.19 41.6667 41.6667 34.19 41.6667 25Z" fill="white"/>
</svg>
