<svg width="16" height="16" viewBox="0 0 16 16" fill="none" xmlns="http://www.w3.org/2000/svg">
<path d="M14.5076 10.614L10.241 2.93398C9.66763 1.90065 8.87429 1.33398 8.00096 1.33398C7.12763 1.33398 6.3343 1.90065 5.76096 2.93398L1.49429 10.614C0.954295 11.594 0.894295 12.534 1.32763 13.274C1.76096 14.014 2.6143 14.4207 3.73429 14.4207H12.2676C13.3876 14.4207 14.241 14.014 14.6743 13.274C15.1076 12.534 15.0476 11.5873 14.5076 10.614ZM7.50096 6.00065C7.50096 5.72732 7.72763 5.50065 8.00096 5.50065C8.27429 5.50065 8.50096 5.72732 8.50096 6.00065V9.33398C8.50096 9.60732 8.27429 9.83398 8.00096 9.83398C7.72763 9.83398 7.50096 9.60732 7.50096 9.33398V6.00065ZM8.47429 11.8073C8.44096 11.834 8.40763 11.8607 8.3743 11.8873C8.3343 11.914 8.29429 11.934 8.25429 11.9473C8.21429 11.9673 8.17429 11.9807 8.12763 11.9873C8.08763 11.994 8.04096 12.0007 8.00096 12.0007C7.96096 12.0007 7.9143 11.994 7.86763 11.9873C7.82763 11.9807 7.78763 11.9673 7.74763 11.9473C7.70763 11.934 7.66763 11.914 7.62763 11.8873C7.59429 11.8607 7.56096 11.834 7.52763 11.8073C7.40763 11.6807 7.33429 11.5073 7.33429 11.334C7.33429 11.1607 7.40763 10.9873 7.52763 10.8607C7.56096 10.834 7.59429 10.8073 7.62763 10.7807C7.66763 10.754 7.70763 10.734 7.74763 10.7207C7.78763 10.7007 7.82763 10.6873 7.86763 10.6807C7.9543 10.6607 8.04763 10.6607 8.12763 10.6807C8.17429 10.6873 8.21429 10.7007 8.25429 10.7207C8.29429 10.734 8.3343 10.754 8.3743 10.7807C8.40763 10.8073 8.44096 10.834 8.47429 10.8607C8.5943 10.9873 8.66763 11.1607 8.66763 11.334C8.66763 11.5073 8.5943 11.6807 8.47429 11.8073Z" fill="#FFB400"/>
</svg>
