<svg width="15" height="25" viewBox="0 0 15 25" fill="none" xmlns="http://www.w3.org/2000/svg">
<path fill-rule="evenodd" clip-rule="evenodd" d="M7.5 25C3.36375 25 0 21.8038 0 17.8775V5.165C0 2.3175 2.43 0 5.41625 0C8.40375 0 10.8337 2.3175 10.8337 5.165L10.8263 17.8862C10.8263 19.6537 9.33 21.0925 7.4925 21.0925C5.655 21.0925 4.16 19.6537 4.16 17.885L4.16625 6.14625C4.1675 5.45625 4.7275 4.8975 5.41625 4.8975H5.4175C6.1075 4.8975 6.6675 5.4575 6.66625 6.14875L6.66 17.8862C6.66 18.275 7.0325 18.5925 7.4925 18.5925C7.9525 18.5925 8.32625 18.275 8.32625 17.885L8.33375 5.16375C8.33375 3.695 7.025 2.5 5.41625 2.5C3.80875 2.5 2.5 3.695 2.5 5.165V17.8775C2.5 20.4263 4.7425 22.5 7.5 22.5C10.2575 22.5 12.5 20.4263 12.5 17.8775V5.165C12.5 4.47375 13.06 3.915 13.75 3.915C14.44 3.915 15 4.47375 15 5.165V17.8775C15 21.8038 11.6362 25 7.5 25Z" fill="#F5F4F4"/>
</svg>
