<svg width="180" height="19" viewBox="0 0 180 19" fill="none" xmlns="http://www.w3.org/2000/svg">
<path d="M0.0750001 18V0.499999H3.425L10.875 12.85H9.1L16.425 0.499999H19.75L19.8 18H16L15.975 6.325H16.675L10.825 16.15H9L3.025 6.325H3.875V18H0.0750001ZM33.702 18.3C32.3186 18.3 31.0353 18.075 29.852 17.625C28.6853 17.175 27.6686 16.5417 26.802 15.725C25.952 14.9083 25.2853 13.95 24.802 12.85C24.3353 11.75 24.102 10.55 24.102 9.25C24.102 7.95 24.3353 6.75 24.802 5.65C25.2853 4.55 25.9603 3.59167 26.827 2.775C27.6936 1.95833 28.7103 1.325 29.877 0.874998C31.0436 0.424999 32.3103 0.2 33.677 0.2C35.0603 0.2 36.327 0.424999 37.477 0.874998C38.6436 1.325 39.652 1.95833 40.502 2.775C41.3686 3.59167 42.0436 4.55 42.527 5.65C43.0103 6.73333 43.252 7.93333 43.252 9.25C43.252 10.55 43.0103 11.7583 42.527 12.875C42.0436 13.975 41.3686 14.9333 40.502 15.75C39.652 16.55 38.6436 17.175 37.477 17.625C36.327 18.075 35.0686 18.3 33.702 18.3ZM33.677 14.85C34.4603 14.85 35.177 14.7167 35.827 14.45C36.4936 14.1833 37.077 13.8 37.577 13.3C38.077 12.8 38.4603 12.2083 38.727 11.525C39.0103 10.8417 39.152 10.0833 39.152 9.25C39.152 8.41667 39.0103 7.65833 38.727 6.975C38.4603 6.29167 38.077 5.7 37.577 5.2C37.0936 4.7 36.5186 4.31667 35.852 4.05C35.1853 3.78333 34.4603 3.65 33.677 3.65C32.8936 3.65 32.1686 3.78333 31.502 4.05C30.852 4.31667 30.277 4.7 29.777 5.2C29.277 5.7 28.8853 6.29167 28.602 6.975C28.3353 7.65833 28.202 8.41667 28.202 9.25C28.202 10.0667 28.3353 10.825 28.602 11.525C28.8853 12.2083 29.2686 12.8 29.752 13.3C30.252 13.8 30.8353 14.1833 31.502 14.45C32.1686 14.7167 32.8936 14.85 33.677 14.85ZM47.5457 18V0.499999H50.8957L61.2207 13.1H59.5957V0.499999H63.5957V18H60.2707L49.9207 5.4H51.5457V18H47.5457ZM72.7111 7.55H81.1361V10.7H72.7111V7.55ZM73.0111 14.75H82.5361V18H68.9861V0.499999H82.2111V3.75H73.0111V14.75ZM91.1877 18V10.85L92.1127 13.3L84.4127 0.499999H88.7127L94.6127 10.325H92.1377L98.0627 0.499999H102.038L94.3377 13.3L95.2377 10.85V18H91.1877Z" fill="#35C411"/>
<path d="M116.357 0.499999H121.307V18H116.357V0.499999ZM109.607 18H104.657V0.499999H109.607V18ZM116.707 11.175H109.257V7.075H116.707V11.175ZM134.874 18.35C133.474 18.35 132.182 18.125 130.999 17.675C129.815 17.225 128.782 16.5917 127.899 15.775C127.032 14.9417 126.357 13.975 125.874 12.875C125.39 11.775 125.149 10.5667 125.149 9.25C125.149 7.93333 125.39 6.725 125.874 5.625C126.357 4.525 127.032 3.56667 127.899 2.75C128.782 1.91667 129.815 1.275 130.999 0.824999C132.182 0.374999 133.474 0.149999 134.874 0.149999C136.29 0.149999 137.582 0.374999 138.749 0.824999C139.932 1.275 140.957 1.91667 141.824 2.75C142.69 3.56667 143.365 4.525 143.849 5.625C144.349 6.725 144.599 7.93333 144.599 9.25C144.599 10.5667 144.349 11.7833 143.849 12.9C143.365 14 142.69 14.9583 141.824 15.775C140.957 16.5917 139.932 17.225 138.749 17.675C137.582 18.125 136.29 18.35 134.874 18.35ZM134.874 14.25C135.54 14.25 136.157 14.1333 136.724 13.9C137.307 13.6667 137.807 13.3333 138.224 12.9C138.657 12.45 138.99 11.9167 139.224 11.3C139.474 10.6833 139.599 10 139.599 9.25C139.599 8.48333 139.474 7.8 139.224 7.2C138.99 6.58333 138.657 6.05833 138.224 5.625C137.807 5.175 137.307 4.83333 136.724 4.6C136.157 4.36667 135.54 4.25 134.874 4.25C134.207 4.25 133.582 4.36667 132.999 4.6C132.432 4.83333 131.932 5.175 131.499 5.625C131.082 6.05833 130.749 6.58333 130.499 7.2C130.265 7.8 130.149 8.48333 130.149 9.25C130.149 10 130.265 10.6833 130.499 11.3C130.749 11.9167 131.082 12.45 131.499 12.9C131.932 13.3333 132.432 13.6667 132.999 13.9C133.582 14.1333 134.207 14.25 134.874 14.25ZM154.591 18.35C153.158 18.35 151.775 18.175 150.441 17.825C149.125 17.4583 148.05 16.9917 147.216 16.425L148.841 12.775C149.625 13.275 150.525 13.6917 151.541 14.025C152.575 14.3417 153.6 14.5 154.616 14.5C155.3 14.5 155.85 14.4417 156.266 14.325C156.683 14.1917 156.983 14.025 157.166 13.825C157.366 13.6083 157.466 13.3583 157.466 13.075C157.466 12.675 157.283 12.3583 156.916 12.125C156.55 11.8917 156.075 11.7 155.491 11.55C154.908 11.4 154.258 11.25 153.541 11.1C152.841 10.95 152.133 10.7583 151.416 10.525C150.716 10.2917 150.075 9.99167 149.491 9.625C148.908 9.24167 148.433 8.75 148.066 8.15C147.7 7.53333 147.516 6.75833 147.516 5.825C147.516 4.775 147.8 3.825 148.366 2.975C148.95 2.125 149.816 1.44167 150.966 0.924999C152.116 0.408332 153.55 0.149999 155.266 0.149999C156.416 0.149999 157.541 0.283332 158.641 0.55C159.758 0.799999 160.75 1.175 161.616 1.675L160.091 5.35C159.258 4.9 158.433 4.56667 157.616 4.35C156.8 4.11667 156.008 4 155.241 4C154.558 4 154.008 4.075 153.591 4.225C153.175 4.35833 152.875 4.54167 152.691 4.775C152.508 5.00833 152.416 5.275 152.416 5.575C152.416 5.95833 152.591 6.26667 152.941 6.5C153.308 6.71667 153.783 6.9 154.366 7.05C154.966 7.18333 155.616 7.325 156.316 7.475C157.033 7.625 157.741 7.81667 158.441 8.05C159.158 8.26667 159.808 8.56667 160.391 8.95C160.975 9.31667 161.441 9.80833 161.791 10.425C162.158 11.025 162.341 11.7833 162.341 12.7C162.341 13.7167 162.05 14.6583 161.466 15.525C160.9 16.375 160.041 17.0583 158.891 17.575C157.758 18.0917 156.325 18.35 154.591 18.35ZM169.359 18V4.425H163.984V0.499999H179.659V4.425H174.309V18H169.359Z" fill="white"/>
</svg>
